<svg width="177" height="178" viewBox="0 0 177 178" fill="none" xmlns="http://www.w3.org/2000/svg">
<path fill-rule="evenodd" clip-rule="evenodd" d="M155.986 75.5318C159.313 71.9964 157.681 66.1914 153 64.9074L128.459 58.1768L128.594 43.777C128.619 41.0456 126.273 38.8938 123.554 39.1549L105.952 40.8454L93.2872 17.7538C90.9529 13.4975 84.9277 13.2558 82.2599 17.3114L69.5123 36.6902L55.7702 32.588C53.2793 31.8445 50.6676 33.3109 50.0057 35.8247L45.0684 54.577L18.962 59.5299C14.1927 60.4347 12.1009 66.0903 15.1336 69.8808L29.4895 87.8239L19.5656 102.279C18.0944 104.422 18.6898 107.358 20.8797 108.758L38.6548 120.126L35.7257 143.127C35.1124 147.942 39.8448 151.68 44.3869 149.967L61.4438 143.534L70.1249 155.798C71.703 158.027 74.8649 158.398 76.9165 156.595L94.758 140.914L120.411 153.017C124.802 155.088 129.818 151.742 129.593 146.893L128.5 123.403L137.904 119.842C140.259 118.95 141.459 116.33 140.596 113.964L134.794 98.0539L155.986 75.5318Z" fill="url(#paint0_linear_435_774)"/>
<path d="M45.2139 83.6159V80.9883H42.6377V78.6955H45.2139V76.0679H47.6354V78.6955H50.2115V80.9883H47.6354V83.6159H45.2139ZM52.3614 81.9157L55.2724 78.2576C55.6846 77.7252 55.8907 77.2271 55.8907 76.7634V74.5479C55.8907 74.1186 55.676 73.9039 55.2467 73.9039H55.0148C54.5854 73.9039 54.3708 74.1186 54.3708 74.5479V77.5362H50.9703V74.1615C50.9703 71.9289 52.0866 70.8126 54.3192 70.8126H56.0968C58.3294 70.8126 59.4457 71.9289 59.4457 74.1615V76.8665C59.4457 78.0858 58.9649 79.2966 58.0031 80.4988L55.0921 84.1569C54.6799 84.6893 54.4738 85.1873 54.4738 85.651V85.7798H59.4457V89H50.9188V85.548C50.9188 84.8782 51.0218 84.2771 51.2279 83.7447C51.434 83.2123 51.8118 82.6026 52.3614 81.9157ZM69.1122 79.9578V85.8056C69.1122 88.0382 67.9959 89.1546 65.7633 89.1546H63.8054C61.5728 89.1546 60.4565 88.0382 60.4565 85.8056V82.5339H63.9342V85.4192C63.9342 85.8485 64.1489 86.0632 64.5783 86.0632H64.9132C65.3425 86.0632 65.5572 85.8485 65.5572 85.4192V81.0655C65.5572 80.5675 65.3425 80.3185 64.9132 80.3185C64.5868 80.3185 64.2262 80.5675 63.8312 81.0655H60.5595V70.9671H68.8546V74.1873H63.9085L63.8569 78.0515C64.6126 77.3817 65.437 77.0468 66.33 77.0468H66.3815C67.2231 77.0468 67.8843 77.313 68.3652 77.8454C68.8632 78.3606 69.1122 79.0647 69.1122 79.9578ZM79.1064 85.8056C79.1064 88.0382 77.9901 89.1546 75.7574 89.1546H73.542C71.3093 89.1546 70.193 88.0382 70.193 85.8056V74.1615C70.193 71.9289 71.3093 70.8126 73.542 70.8126H75.7574C77.9901 70.8126 79.1064 71.9289 79.1064 74.1615V85.8056ZM75.5256 74.5479C75.5256 74.1186 75.3109 73.9039 74.8816 73.9039H74.4179C73.9885 73.9039 73.7738 74.1186 73.7738 74.5479V85.4192C73.7738 85.8485 73.9885 86.0632 74.4179 86.0632H74.8816C75.3109 86.0632 75.5256 85.8485 75.5256 85.4192V74.5479ZM91.9959 74.5737V88.9227C91.9959 90.9321 90.9826 91.9368 88.9561 91.9368H86.4572C84.6367 91.9368 83.7265 91.0351 83.7265 89.2319V88.3302H86.7663V88.8454C86.7663 89.2233 86.9553 89.4122 87.3331 89.4122H88.0802C88.458 89.4122 88.6469 89.2233 88.6469 88.8454V86.6815C87.8054 87.3513 86.9638 87.6862 86.1223 87.6862H86.0708C85.3151 87.6862 84.7312 87.4715 84.319 87.0421C83.9068 86.6128 83.7008 85.9945 83.7008 85.1873V76.918C83.7008 76.1108 83.9068 75.4925 84.319 75.0632C84.7312 74.6338 85.3151 74.4191 86.0708 74.4191H86.1223C86.9638 74.4191 87.8054 74.754 88.6469 75.4238V74.5737H91.9959ZM88.5954 84.6721V77.562C88.3206 77.459 88.0458 77.4074 87.771 77.4074C87.3245 77.4074 87.1012 77.5964 87.1012 77.9742V84.2599C87.1012 84.6378 87.3245 84.8267 87.771 84.8267C88.0458 84.8267 88.3206 84.7752 88.5954 84.6721ZM101.122 83.1522H96.4335V85.651C96.4335 86.0289 96.6224 86.2178 97.0002 86.2178H97.3093C97.6872 86.2178 97.8761 86.0289 97.8761 85.651V84.2857H101.122V86.0117C101.122 88.1069 100.074 89.1546 97.9791 89.1546H96.2274C94.1321 89.1546 93.0845 88.1069 93.0845 86.0117V77.562C93.0845 75.4668 94.1321 74.4191 96.2274 74.4191H97.9791C100.074 74.4191 101.122 75.4668 101.122 77.562V83.1522ZM96.4335 77.8711V80.5245H97.8246V77.8711C97.8246 77.4933 97.6356 77.3044 97.2578 77.3044H97.0002C96.6224 77.3044 96.4335 77.4933 96.4335 77.8711ZM110.411 77.562V89H107.01V77.9742C107.01 77.5964 106.804 77.4074 106.392 77.4074C106.134 77.4074 105.868 77.459 105.593 77.562V89H102.193V74.5737H105.542V75.5269C106.4 74.7884 107.233 74.4191 108.041 74.4191H108.247C109.26 74.4191 109.921 74.8313 110.23 75.6557C111.089 74.8313 111.965 74.4191 112.858 74.4191H113.064C114.507 74.4191 115.228 75.2006 115.228 76.7634V89H111.827V77.9742C111.827 77.5964 111.621 77.4074 111.209 77.4074C110.952 77.4074 110.685 77.459 110.411 77.562ZM120.865 79.7259V77.8711C120.865 77.4933 120.676 77.3044 120.298 77.3044H120.067C119.689 77.3044 119.5 77.4933 119.5 77.8711V78.8758C119.5 79.2193 119.663 79.4941 119.989 79.7002L122.617 81.3231C123.167 81.6838 123.562 82.053 123.802 82.4309C124.042 82.7915 124.163 83.2896 124.163 83.925V86.0117C124.163 88.1069 123.115 89.1546 121.02 89.1546H119.397C117.302 89.1546 116.254 88.1069 116.254 86.0117V83.7447H119.526V85.7026C119.526 86.0804 119.715 86.2693 120.092 86.2693H120.376C120.754 86.2693 120.942 86.0804 120.942 85.7026V84.6206C120.942 84.2771 120.779 84.0023 120.453 83.7962L117.825 82.1733C117.276 81.8126 116.881 81.452 116.64 81.0913C116.4 80.7135 116.28 80.2068 116.28 79.5714V77.562C116.28 75.4668 117.327 74.4191 119.423 74.4191H120.994C123.089 74.4191 124.137 75.4668 124.137 77.562V79.7259H120.865ZM60.9219 114V95.7095H64.3224V100.578C65.1811 99.8056 66.0054 99.4191 66.7954 99.4191H66.847C67.6026 99.4191 68.1865 99.6338 68.5987 100.063C69.0109 100.493 69.217 101.111 69.217 101.918V111.656C69.217 112.463 69.0109 113.081 68.5987 113.511C68.1865 113.94 67.6026 114.155 66.847 114.155H66.7954C65.9539 114.155 65.1124 113.82 64.2708 113.15V114H60.9219ZM64.3224 102.562V111.012C64.5971 111.115 64.8719 111.166 65.1467 111.166C65.5932 111.166 65.8165 110.977 65.8165 110.6V102.974C65.8165 102.596 65.5932 102.407 65.1467 102.407C64.8719 102.407 64.5971 102.459 64.3224 102.562ZM74.582 102.407H74.2213C73.8435 102.407 73.6546 102.596 73.6546 102.974V110.6C73.6546 110.977 73.8435 111.166 74.2213 111.166H74.582C74.9598 111.166 75.1487 110.977 75.1487 110.6V102.974C75.1487 102.596 74.9598 102.407 74.582 102.407ZM75.4063 114.155H73.397C71.3017 114.155 70.2541 113.107 70.2541 111.012V102.562C70.2541 100.467 71.3017 99.4191 73.397 99.4191H75.4063C77.5016 99.4191 78.5492 100.467 78.5492 102.562V111.012C78.5492 113.107 77.5016 114.155 75.4063 114.155ZM79.639 114V99.5737H82.988V100.527C83.8467 99.7884 84.6711 99.4191 85.4611 99.4191H85.7187C87.1613 99.4191 87.8826 100.201 87.8826 101.763V114H84.4822V102.974C84.4822 102.596 84.2589 102.407 83.8124 102.407C83.5719 102.407 83.3143 102.459 83.0395 102.562V114H79.639ZM97.2154 99.5737V114H93.8665V113.047C93.0078 113.785 92.1834 114.155 91.3934 114.155H91.1358C89.6932 114.155 88.9718 113.373 88.9718 111.81V99.5737H92.3723V110.6C92.3723 110.977 92.5956 111.166 93.0421 111.166C93.2826 111.166 93.5402 111.115 93.815 111.012V99.5737H97.2154ZM102.89 104.726V102.871C102.89 102.493 102.701 102.304 102.323 102.304H102.092C101.714 102.304 101.525 102.493 101.525 102.871V103.876C101.525 104.219 101.688 104.494 102.014 104.7L104.642 106.323C105.192 106.684 105.587 107.053 105.827 107.431C106.067 107.792 106.188 108.29 106.188 108.925V111.012C106.188 113.107 105.14 114.155 103.045 114.155H101.422C99.3265 114.155 98.2789 113.107 98.2789 111.012V108.745H101.551V110.703C101.551 111.08 101.74 111.269 102.117 111.269H102.401C102.779 111.269 102.967 111.08 102.967 110.703V109.621C102.967 109.277 102.804 109.002 102.478 108.796L99.8503 107.173C99.3008 106.813 98.9058 106.452 98.6653 106.091C98.4249 105.713 98.3047 105.207 98.3047 104.571V102.562C98.3047 100.467 99.3523 99.4191 101.448 99.4191H103.019C105.114 99.4191 106.162 100.467 106.162 102.562V104.726H102.89Z" fill="#382966"/>
<defs>
<linearGradient id="paint0_linear_435_774" x1="108.004" y1="158.148" x2="68.9959" y2="19.3973" gradientUnits="userSpaceOnUse">
<stop stop-color="#C4F8BD"/>
<stop offset="1" stop-color="#86CEBC"/>
</linearGradient>
</defs>
</svg>
