<svg width="177" height="178" viewBox="0 0 177 178" fill="none" xmlns="http://www.w3.org/2000/svg">
<path fill-rule="evenodd" clip-rule="evenodd" d="M155.986 75.5318C159.313 71.9964 157.681 66.1914 153 64.9074L128.459 58.1768L128.594 43.777C128.619 41.0456 126.273 38.8938 123.554 39.1549L105.952 40.8454L93.2872 17.7538C90.9529 13.4975 84.9277 13.2558 82.2599 17.3114L69.5123 36.6902L55.7702 32.588C53.2793 31.8445 50.6676 33.3109 50.0057 35.8247L45.0684 54.577L18.962 59.5299C14.1927 60.4347 12.1009 66.0903 15.1336 69.8808L29.4895 87.8239L19.5656 102.279C18.0944 104.422 18.6898 107.358 20.8797 108.758L38.6548 120.126L35.7257 143.127C35.1124 147.942 39.8448 151.68 44.3869 149.967L61.4438 143.534L70.1249 155.798C71.703 158.027 74.8649 158.398 76.9165 156.595L94.758 140.914L120.411 153.017C124.802 155.088 129.818 151.742 129.593 146.893L128.5 123.403L137.904 119.842C140.259 118.95 141.459 116.33 140.596 113.964L134.794 98.0539L155.986 75.5318Z" fill="url(#paint0_linear_435_774)"/>
<path d="M47.3879 82.9151V80.1071H44.6572V78.0977H47.3879V75.3155H49.5004V78.0977H52.2311V80.1071H49.5004V82.9151H47.3879ZM61.0279 79.5919V85.079C61.0279 87.3203 59.9202 88.428 57.7047 88.428H56.5455C54.33 88.428 53.248 87.346 53.248 85.1048V81.9104H55.9014V84.9502C55.9014 85.6716 56.2363 86.0064 56.9319 86.0064H57.2668C57.9623 86.0064 58.2972 85.6716 58.2972 84.9502V80.3132C58.2972 79.5661 58.0139 79.1797 57.3441 79.1797C56.7773 79.1797 56.3394 79.4373 55.7726 80.0814H53.3511V70.2406H60.7703V72.7394H55.9014L55.8499 77.5825C56.4939 77.0415 57.1637 76.6551 58.2457 76.6551H58.2715C59.9202 76.6551 61.0279 77.7628 61.0279 79.5919ZM70.5441 85.079C70.5441 87.3203 69.4364 88.428 67.1951 88.428H65.8298C63.5885 88.428 62.4808 87.3203 62.4808 85.079V73.435C62.4808 71.1937 63.5885 70.086 65.8298 70.086H67.1951C69.4364 70.086 70.5441 71.1937 70.5441 73.435V85.079ZM67.8134 73.5638C67.8134 72.8424 67.4785 72.5076 66.7829 72.5076H66.2677C65.5464 72.5076 65.2115 72.8424 65.2115 73.5638V84.9502C65.2115 85.6716 65.5464 86.0064 66.2677 86.0064H66.7829C67.4785 86.0064 67.8134 85.6716 67.8134 84.9502V73.5638ZM80.1542 85.079C80.1542 87.3203 79.0465 88.428 76.8053 88.428H75.4399C73.1987 88.428 72.091 87.3203 72.091 85.079V73.435C72.091 71.1937 73.1987 70.086 75.4399 70.086H76.8053C79.0465 70.086 80.1542 71.1937 80.1542 73.435V85.079ZM77.4235 73.5638C77.4235 72.8424 77.0886 72.5076 76.3931 72.5076H75.8779C75.1566 72.5076 74.8217 72.8424 74.8217 73.5638V84.9502C74.8217 85.6716 75.1566 86.0064 75.8779 86.0064H76.3931C77.0886 86.0064 77.4235 85.6716 77.4235 84.9502V73.5638ZM92.3908 74.1305V88.1962C92.3908 90.2571 91.4119 91.2102 89.351 91.2102H87.6765C85.8217 91.2102 84.9458 90.3601 84.9458 88.5053V87.6809H87.3159V88.2992C87.3159 88.8402 87.5735 89.1493 88.1145 89.1493H89.0161C89.5571 89.1493 89.8147 88.8402 89.8147 88.2992V85.9292C89.1449 86.4959 88.3721 86.9081 87.3674 86.9081H87.3416C85.7444 86.9081 84.8943 85.9034 84.8943 84.2547V76.6036C84.8943 74.9549 85.7444 73.9759 87.3416 73.9759H87.3674C88.4494 73.9759 89.2222 74.4654 89.8147 74.9806V74.1305H92.3908ZM89.7889 84.1516V76.8097C89.4025 76.5263 88.9388 76.346 88.4236 76.346C87.8053 76.346 87.4962 76.6036 87.4962 77.2219V83.7137C87.4962 84.332 87.8053 84.5896 88.4236 84.5896C88.9388 84.5896 89.4025 84.4092 89.7889 84.1516ZM101.141 82.2195H96.4265V85.1563C96.4265 85.8004 96.7356 86.1095 97.3539 86.1095H97.6888C98.3328 86.1095 98.642 85.8004 98.642 85.1563V83.6622H101.141V85.2851C101.141 87.3718 100.085 88.428 97.9979 88.428H96.9932C94.9066 88.428 93.8504 87.3718 93.8504 85.2851V77.1188C93.8504 75.0322 94.9066 73.9759 96.9932 73.9759H97.9979C100.085 73.9759 101.141 75.0322 101.141 77.1188V82.2195ZM96.4265 77.2219V80.0041H98.5904V77.2219C98.5904 76.5778 98.2813 76.2687 97.6373 76.2687H97.3539C96.7356 76.2687 96.4265 76.5778 96.4265 77.2219ZM109.924 76.7839V88.2734H107.296V77.1446C107.296 76.6036 107.064 76.346 106.523 76.346C106.06 76.346 105.647 76.5005 105.158 76.7839V88.2734H102.556V74.1305H105.132V75.0579C105.802 74.4654 106.549 73.9759 107.58 73.9759H107.683C108.687 73.9759 109.357 74.3881 109.692 75.161C110.439 74.4654 111.238 73.9759 112.345 73.9759H112.423C113.865 73.9759 114.664 74.8261 114.664 76.3717V88.2734H112.062V77.1446C112.062 76.6036 111.804 76.346 111.263 76.346C110.8 76.346 110.387 76.5005 109.924 76.7839ZM120.701 79.1282V77.1703C120.701 76.5521 120.392 76.2429 119.799 76.2429H119.49C118.898 76.2429 118.588 76.5521 118.588 77.1703V78.2781C118.588 78.7933 118.743 79.0767 119.207 79.36L121.654 80.9057C122.762 81.6013 123.251 82.2195 123.251 83.5849V85.2851C123.251 87.3718 122.195 88.428 120.108 88.428H119.181C117.094 88.428 116.064 87.3718 116.064 85.3109V83.1469H118.588V85.2336C118.588 85.8519 118.872 86.161 119.49 86.161H119.825C120.443 86.161 120.752 85.8519 120.752 85.2336V84.0228C120.752 83.5334 120.572 83.2242 120.134 82.9409L117.661 81.4209C116.579 80.7254 116.09 80.0814 116.09 78.7418V77.1188C116.09 75.0322 117.146 73.9759 119.232 73.9759H120.108C122.195 73.9759 123.225 75.0322 123.225 77.0931V79.1282H120.701ZM62.8073 113.273V94.9829H65.4091V100.084C66.0017 99.5169 66.7745 98.9759 67.8565 98.9759H67.8822C69.4537 98.9759 70.3038 99.9549 70.3038 101.604V110.775C70.3038 112.423 69.4537 113.428 67.8822 113.428H67.8565C66.7745 113.428 65.9759 112.939 65.3834 112.423V113.273H62.8073ZM65.4091 101.81V110.594C65.8213 110.878 66.2593 111.058 66.7745 111.058C67.3928 111.058 67.7019 110.8 67.7019 110.182V102.222C67.7019 101.604 67.3928 101.346 66.7745 101.346C66.2593 101.346 65.8213 101.526 65.4091 101.81ZM76.0654 113.428H74.8547C72.768 113.428 71.7118 112.372 71.7118 110.285V102.119C71.7118 100.032 72.768 98.9759 74.8547 98.9759H76.0654C78.1521 98.9759 79.2083 100.032 79.2083 102.119V110.285C79.2083 112.372 78.1521 113.428 76.0654 113.428ZM75.6533 101.32H75.2411C74.6228 101.32 74.3137 101.629 74.3137 102.273V110.131C74.3137 110.775 74.6228 111.084 75.2411 111.084H75.6533C76.2973 111.084 76.6064 110.775 76.6064 110.131V102.273C76.6064 101.629 76.2973 101.32 75.6533 101.32ZM80.6187 113.273V99.1305H83.1949V100.058C83.8647 99.4654 84.586 98.9759 85.6679 98.9759H85.7968C87.2909 98.9759 88.0637 99.8261 88.0637 101.398V113.273H85.4619V102.17C85.4619 101.604 85.2042 101.346 84.6117 101.346C84.1223 101.346 83.7101 101.501 83.2206 101.784V113.273H80.6187ZM96.9689 99.1305V113.273H94.3928V112.346C93.7487 112.939 93.0017 113.428 91.9197 113.428H91.8166C90.2967 113.428 89.5239 112.578 89.5239 111.006V99.1305H92.1258V110.234C92.1258 110.8 92.4091 111.058 93.0017 111.058C93.4654 111.058 93.9033 110.903 94.367 110.62V99.1305H96.9689ZM103.04 104.128V102.17C103.04 101.552 102.731 101.243 102.139 101.243H101.83C101.237 101.243 100.928 101.552 100.928 102.17V103.278C100.928 103.793 101.082 104.077 101.546 104.36L103.993 105.906C105.101 106.601 105.591 107.22 105.591 108.585V110.285C105.591 112.372 104.534 113.428 102.448 113.428H101.52C99.4337 113.428 98.4033 112.372 98.4033 110.311V108.147H100.928V110.234C100.928 110.852 101.211 111.161 101.83 111.161H102.164C102.783 111.161 103.092 110.852 103.092 110.234V109.023C103.092 108.533 102.911 108.224 102.474 107.941L100 106.421C98.9185 105.725 98.429 105.081 98.429 103.742V102.119C98.429 100.032 99.4852 98.9759 101.572 98.9759H102.448C104.534 98.9759 105.565 100.032 105.565 102.093V104.128H103.04Z" fill="#382966"/>
<path d="M47.3879 82.9151V80.1071H44.6572V78.0977H47.3879V75.3155H49.5004V78.0977H52.2311V80.1071H49.5004V82.9151H47.3879ZM61.0279 79.5919V85.079C61.0279 87.3203 59.9202 88.428 57.7047 88.428H56.5455C54.33 88.428 53.248 87.346 53.248 85.1048V81.9104H55.9014V84.9502C55.9014 85.6716 56.2363 86.0064 56.9319 86.0064H57.2668C57.9623 86.0064 58.2972 85.6716 58.2972 84.9502V80.3132C58.2972 79.5661 58.0139 79.1797 57.3441 79.1797C56.7773 79.1797 56.3394 79.4373 55.7726 80.0814H53.3511V70.2406H60.7703V72.7394H55.9014L55.8499 77.5825C56.4939 77.0415 57.1637 76.6551 58.2457 76.6551H58.2715C59.9202 76.6551 61.0279 77.7628 61.0279 79.5919ZM70.5441 85.079C70.5441 87.3203 69.4364 88.428 67.1951 88.428H65.8298C63.5885 88.428 62.4808 87.3203 62.4808 85.079V73.435C62.4808 71.1937 63.5885 70.086 65.8298 70.086H67.1951C69.4364 70.086 70.5441 71.1937 70.5441 73.435V85.079ZM67.8134 73.5638C67.8134 72.8424 67.4785 72.5076 66.7829 72.5076H66.2677C65.5464 72.5076 65.2115 72.8424 65.2115 73.5638V84.9502C65.2115 85.6716 65.5464 86.0064 66.2677 86.0064H66.7829C67.4785 86.0064 67.8134 85.6716 67.8134 84.9502V73.5638ZM80.1542 85.079C80.1542 87.3203 79.0465 88.428 76.8053 88.428H75.4399C73.1987 88.428 72.091 87.3203 72.091 85.079V73.435C72.091 71.1937 73.1987 70.086 75.4399 70.086H76.8053C79.0465 70.086 80.1542 71.1937 80.1542 73.435V85.079ZM77.4235 73.5638C77.4235 72.8424 77.0886 72.5076 76.3931 72.5076H75.8779C75.1566 72.5076 74.8217 72.8424 74.8217 73.5638V84.9502C74.8217 85.6716 75.1566 86.0064 75.8779 86.0064H76.3931C77.0886 86.0064 77.4235 85.6716 77.4235 84.9502V73.5638ZM92.3908 74.1305V88.1962C92.3908 90.2571 91.4119 91.2102 89.351 91.2102H87.6765C85.8217 91.2102 84.9458 90.3601 84.9458 88.5053V87.6809H87.3159V88.2992C87.3159 88.8402 87.5735 89.1493 88.1145 89.1493H89.0161C89.5571 89.1493 89.8147 88.8402 89.8147 88.2992V85.9292C89.1449 86.4959 88.3721 86.9081 87.3674 86.9081H87.3416C85.7444 86.9081 84.8943 85.9034 84.8943 84.2547V76.6036C84.8943 74.9549 85.7444 73.9759 87.3416 73.9759H87.3674C88.4494 73.9759 89.2222 74.4654 89.8147 74.9806V74.1305H92.3908ZM89.7889 84.1516V76.8097C89.4025 76.5263 88.9388 76.346 88.4236 76.346C87.8053 76.346 87.4962 76.6036 87.4962 77.2219V83.7137C87.4962 84.332 87.8053 84.5896 88.4236 84.5896C88.9388 84.5896 89.4025 84.4092 89.7889 84.1516ZM101.141 82.2195H96.4265V85.1563C96.4265 85.8004 96.7356 86.1095 97.3539 86.1095H97.6888C98.3328 86.1095 98.642 85.8004 98.642 85.1563V83.6622H101.141V85.2851C101.141 87.3718 100.085 88.428 97.9979 88.428H96.9932C94.9066 88.428 93.8504 87.3718 93.8504 85.2851V77.1188C93.8504 75.0322 94.9066 73.9759 96.9932 73.9759H97.9979C100.085 73.9759 101.141 75.0322 101.141 77.1188V82.2195ZM96.4265 77.2219V80.0041H98.5904V77.2219C98.5904 76.5778 98.2813 76.2687 97.6373 76.2687H97.3539C96.7356 76.2687 96.4265 76.5778 96.4265 77.2219ZM109.924 76.7839V88.2734H107.296V77.1446C107.296 76.6036 107.064 76.346 106.523 76.346C106.06 76.346 105.647 76.5005 105.158 76.7839V88.2734H102.556V74.1305H105.132V75.0579C105.802 74.4654 106.549 73.9759 107.58 73.9759H107.683C108.687 73.9759 109.357 74.3881 109.692 75.161C110.439 74.4654 111.238 73.9759 112.345 73.9759H112.423C113.865 73.9759 114.664 74.8261 114.664 76.3717V88.2734H112.062V77.1446C112.062 76.6036 111.804 76.346 111.263 76.346C110.8 76.346 110.387 76.5005 109.924 76.7839ZM120.701 79.1282V77.1703C120.701 76.5521 120.392 76.2429 119.799 76.2429H119.49C118.898 76.2429 118.588 76.5521 118.588 77.1703V78.2781C118.588 78.7933 118.743 79.0767 119.207 79.36L121.654 80.9057C122.762 81.6013 123.251 82.2195 123.251 83.5849V85.2851C123.251 87.3718 122.195 88.428 120.108 88.428H119.181C117.094 88.428 116.064 87.3718 116.064 85.3109V83.1469H118.588V85.2336C118.588 85.8519 118.872 86.161 119.49 86.161H119.825C120.443 86.161 120.752 85.8519 120.752 85.2336V84.0228C120.752 83.5334 120.572 83.2242 120.134 82.9409L117.661 81.4209C116.579 80.7254 116.09 80.0814 116.09 78.7418V77.1188C116.09 75.0322 117.146 73.9759 119.232 73.9759H120.108C122.195 73.9759 123.225 75.0322 123.225 77.0931V79.1282H120.701ZM62.8073 113.273V94.9829H65.4091V100.084C66.0017 99.5169 66.7745 98.9759 67.8565 98.9759H67.8822C69.4537 98.9759 70.3038 99.9549 70.3038 101.604V110.775C70.3038 112.423 69.4537 113.428 67.8822 113.428H67.8565C66.7745 113.428 65.9759 112.939 65.3834 112.423V113.273H62.8073ZM65.4091 101.81V110.594C65.8213 110.878 66.2593 111.058 66.7745 111.058C67.3928 111.058 67.7019 110.8 67.7019 110.182V102.222C67.7019 101.604 67.3928 101.346 66.7745 101.346C66.2593 101.346 65.8213 101.526 65.4091 101.81ZM76.0654 113.428H74.8547C72.768 113.428 71.7118 112.372 71.7118 110.285V102.119C71.7118 100.032 72.768 98.9759 74.8547 98.9759H76.0654C78.1521 98.9759 79.2083 100.032 79.2083 102.119V110.285C79.2083 112.372 78.1521 113.428 76.0654 113.428ZM75.6533 101.32H75.2411C74.6228 101.32 74.3137 101.629 74.3137 102.273V110.131C74.3137 110.775 74.6228 111.084 75.2411 111.084H75.6533C76.2973 111.084 76.6064 110.775 76.6064 110.131V102.273C76.6064 101.629 76.2973 101.32 75.6533 101.32ZM80.6187 113.273V99.1305H83.1949V100.058C83.8647 99.4654 84.586 98.9759 85.6679 98.9759H85.7968C87.2909 98.9759 88.0637 99.8261 88.0637 101.398V113.273H85.4619V102.17C85.4619 101.604 85.2042 101.346 84.6117 101.346C84.1223 101.346 83.7101 101.501 83.2206 101.784V113.273H80.6187ZM96.9689 99.1305V113.273H94.3928V112.346C93.7487 112.939 93.0017 113.428 91.9197 113.428H91.8166C90.2967 113.428 89.5239 112.578 89.5239 111.006V99.1305H92.1258V110.234C92.1258 110.8 92.4091 111.058 93.0017 111.058C93.4654 111.058 93.9033 110.903 94.367 110.62V99.1305H96.9689ZM103.04 104.128V102.17C103.04 101.552 102.731 101.243 102.139 101.243H101.83C101.237 101.243 100.928 101.552 100.928 102.17V103.278C100.928 103.793 101.082 104.077 101.546 104.36L103.993 105.906C105.101 106.601 105.591 107.22 105.591 108.585V110.285C105.591 112.372 104.534 113.428 102.448 113.428H101.52C99.4337 113.428 98.4033 112.372 98.4033 110.311V108.147H100.928V110.234C100.928 110.852 101.211 111.161 101.83 111.161H102.164C102.783 111.161 103.092 110.852 103.092 110.234V109.023C103.092 108.533 102.911 108.224 102.474 107.941L100 106.421C98.9185 105.725 98.429 105.081 98.429 103.742V102.119C98.429 100.032 99.4852 98.9759 101.572 98.9759H102.448C104.534 98.9759 105.565 100.032 105.565 102.093V104.128H103.04Z" fill="#382966"/>
<defs>
<linearGradient id="paint0_linear_435_774" x1="108.004" y1="158.148" x2="68.9959" y2="19.3973" gradientUnits="userSpaceOnUse">
<stop stop-color="#C4F8BD"/>
<stop offset="1" stop-color="#86CEBC"/>
</linearGradient>
</defs>
</svg>
