<svg width="40" height="30" viewBox="0 0 40 30" fill="none" xmlns="http://www.w3.org/2000/svg">
<path d="M7.80156 24.397L11.6459 28.3892H29.6848L35.3035 23.9534L31.1634 24.397L39 11.5332L27.7626 22.6227L27.1712 14.1947L24.214 20.5526L20.9611 5.02734L18.5953 20.5526L11.9416 13.7511L15.786 22.6227L1 12.8639L11.6459 24.8406L7.80156 24.397Z" fill="#0B0C2A" stroke="white" stroke-width="1.4"/>
<path d="M8.03709 9.14815L6.27783 11.6111L9.79635 15.1296L8.03709 9.14815Z" fill="white"/>
<path d="M29.3892 1.62646L26.5798 0V6.21012L29.3892 1.62646Z" fill="white"/>
<path d="M36.3386 8.42801L32.3464 6.21012L31.7549 12.1245L36.3386 8.42801Z" fill="white"/>
<path d="M8.03709 9.14815L6.27783 11.6111L9.79635 15.1296L8.03709 9.14815Z" stroke="white"/>
<path d="M29.3892 1.62646L26.5798 0V6.21012L29.3892 1.62646Z" stroke="white"/>
<path d="M36.3386 8.42801L32.3464 6.21012L31.7549 12.1245L36.3386 8.42801Z" stroke="white"/>
</svg>
