<svg width="262" height="363" viewBox="0 0 262 363" fill="none" xmlns="http://www.w3.org/2000/svg">
<path fill-rule="evenodd" clip-rule="evenodd" d="M21 0C9.4021 0 0 9.4021 0 21V342C0 353.598 9.4021 363 21 363H241C252.598 363 262 353.598 262 342V21C262 9.4021 252.598 0 241 0H21ZM73.1257 38L69.6182 76.8853L47.5696 94.1675L16 86.9663L24.5188 213.223L21.011 303.475L48.75 285.5L78.75 303.475L73.75 339L146.788 334.679L181.25 332.5L189.25 297.5L226.25 290.514H243L233.98 181.539L243 103.289L239.492 42.8005L221.954 38L120.229 42.8005L73.1257 38Z" fill="#0B0C2A"/>
</svg>
