<svg width="262" height="363" viewBox="0 0 262 363" fill="none" xmlns="http://www.w3.org/2000/svg">
<g clip-path="url(#clip0_468_870)">
<path fill-rule="evenodd" clip-rule="evenodd" d="M21 0C9.4021 0 0 9.4021 0 21V342C0 353.598 9.4021 363 21 363H241C252.598 363 262 353.598 262 342V21C262 9.4021 252.598 0 241 0H21ZM73.1257 38L69.6182 76.8853L47.5696 94.1675L16 86.9663L24.5188 213.223L21.011 303.475L48.75 285.5L78.75 303.475L73.75 339L146.788 334.679L181.25 332.5L189.25 297.5L226.25 290.514H243L233.98 181.539L243 103.289L239.492 42.8005L221.954 38L120.229 42.8005L73.1257 38Z" fill="#0B0C2A"/>
<path d="M70.6181 75.8852L74.1258 37L121.23 41.8006L222.954 37L240.492 41.8006L244 102.289L234.98 180.539L244 289.514H227.25L190.25 296.5L182.25 331.5L147.788 333.679L74.75 338L79.75 302.475L49.75 284.5L22.011 302.475L25.5188 212.223L17 85.9665L48.5695 93.1675L70.6181 75.8852Z" stroke="white" stroke-width="3"/>
<path d="M70.6181 75.8852L74.1258 37L121.23 41.8006L222.954 37L240.492 41.8006L244 102.289L234.98 180.539L244 289.514H227.25L190.25 296.5L182.25 331.5L147.788 333.679L74.75 338L79.75 302.475L49.75 284.5L22.011 302.475L25.5188 212.223L17 85.9665L48.5695 93.1675L70.6181 75.8852Z" stroke="white" stroke-width="3"/>
</g>
<defs>
<clipPath id="clip0_468_870">
<rect width="262" height="363" fill="white"/>
</clipPath>
</defs>
</svg>
