<svg width="25" height="19" viewBox="0 0 25 19" fill="none" xmlns="http://www.w3.org/2000/svg">
<mask id="mask0_399_278" style="mask-type:luminance" maskUnits="userSpaceOnUse" x="0" y="0" width="25" height="19">
<path d="M6.3888 0H17.6142C18.3381 0 19.0286 0.289547 19.5408 0.80182L23.6947 4.95568C24.7527 6.01363 24.7527 7.73977 23.6947 8.80886L14.3179 18.1857C13.2599 19.2436 11.5449 19.2548 10.4758 18.1857L0.80947 8.61954C-0.237348 7.58386 -0.27076 5.91341 0.720377 4.83318L4.38425 0.868635C4.89652 0.311817 5.62039 0 6.3888 0Z" fill="white"/>
</mask>
<g mask="url(#mask0_399_278)">
<path d="M6.3888 -0.000976562H17.6142C18.3381 -0.000976562 19.0286 0.28857 19.5408 0.800843L23.6947 4.9547C24.7527 6.01266 24.7527 7.73879 23.6947 8.80788L14.3179 18.1847C13.2599 19.2427 11.5449 19.2538 10.4758 18.1847L0.80947 8.61857C-0.237348 7.58288 -0.27076 5.91243 0.720377 4.8322L4.38425 0.867658C4.89652 0.31084 5.62039 -0.000976562 6.3888 -0.000976562Z" fill="#EE232E"/>
<g opacity="0.56">
<path d="M-3.8125 5.79004C0.530682 6.6364 5.96523 7.32686 12.235 7.23777C17.5916 7.15982 22.2911 6.54731 26.1666 5.79004" stroke="#FCD6D0" stroke-width="1.14" stroke-miterlimit="10"/>
<path d="M12.8252 21.0686C10.5757 16.4805 8.31498 11.8923 6.06543 7.29297" stroke="#FCD6D0" stroke-width="1.14" stroke-miterlimit="10"/>
<path d="M12.2461 19.8659C18.2931 7.80517 12.2461 19.8659 18.7609 6.88086" stroke="#FCD6D0" stroke-width="1.14" stroke-miterlimit="10"/>
<path d="M4.67383 -0.44674C5.23065 1.99212 5.78746 4.43099 6.34428 6.88099C8.1261 4.29735 9.89679 1.71372 11.6786 -0.881057C13.6497 1.35735 15.71 4.64258 17.6811 6.88099C18.0709 4.44213 18.3716 0.945305 18.7613 -1.48242" stroke="#FCD6D0" stroke-width="1.14" stroke-miterlimit="10"/>
</g>
</g>
</svg>
