<svg width="25" height="25" viewBox="0 0 25 25" fill="none" xmlns="http://www.w3.org/2000/svg">
<mask id="mask0_399_268" style="mask-type:luminance" maskUnits="userSpaceOnUse" x="0" y="0" width="25" height="25">
<path d="M24.1795 11.4927C24.1795 5.145 19.0345 0 12.6867 0C11.9963 0 11.3281 0.0668161 10.6822 0.189316C10.6488 0.189316 10.6265 0.189316 10.5931 0.189316C5.37014 0.768407 0.871053 5.0225 0.11378 10.3234C-0.821674 16.8382 4.11173 23.6091 11.2056 24.1214C18.099 24.6114 24.0904 18.9875 24.1461 12.2389C24.1461 12.1832 24.1461 12.1164 24.1461 12.0607C24.1461 11.8714 24.1795 11.682 24.1795 11.4927Z" fill="white"/>
</mask>
<g mask="url(#mask0_399_268)">
<path d="M24.1677 12.1838C24.1121 18.9324 18.1207 24.5563 11.2273 24.0663C4.12229 23.554 -0.799984 16.7942 0.13547 10.2683C0.892743 4.9674 5.39183 0.71331 10.6148 0.13422C17.3634 -0.611917 24.2457 4.88945 24.1789 12.1838H24.1677Z" fill="#C46B29"/>
<path d="M12.6968 22.9303C19.0441 22.9303 24.1896 17.7848 24.1896 11.4376C24.1896 5.0903 19.0441 -0.0551758 12.6968 -0.0551758C6.34957 -0.0551758 1.2041 5.0903 1.2041 11.4376C1.2041 17.7848 6.34957 22.9303 12.6968 22.9303Z" fill="#FFD929"/>
<path d="M12.6976 21.6271C18.3252 21.6271 22.8874 17.065 22.8874 11.4373C22.8874 5.80968 18.3252 1.24756 12.6976 1.24756C7.06993 1.24756 2.50781 5.80968 2.50781 11.4373C2.50781 17.065 7.06993 21.6271 12.6976 21.6271Z" fill="#FFF16F"/>
<path d="M15.6928 5.9697C15.6928 5.73584 15.6038 5.50197 15.4144 5.27925C15.2251 5.05652 15.0135 4.87834 14.7463 4.73357C14.4901 4.58879 14.2563 4.52197 14.0558 4.52197H9.33398C9.47876 4.52197 9.6458 4.57765 9.83512 4.67788C10.0133 4.77811 10.1247 4.90061 10.1358 5.02311V17.8856C10.1135 18.0081 10.0133 18.1195 9.83512 18.2197C9.65694 18.3199 9.48989 18.3756 9.33398 18.3756H14.0558C14.2563 18.3756 14.4901 18.3088 14.7463 18.164C15.0024 18.0192 15.2251 17.8411 15.4144 17.6183C15.5926 17.3956 15.6928 17.1729 15.6928 16.939V5.95856V5.9697ZM13.7774 16.4602H12.0513V6.44857H13.7774V16.4602Z" fill="#FDB813"/>
<path opacity="0.35" d="M11.3721 0.55715L0.0352383 15.079L-2.6709 20.7028L0.246828 21.9167L1.31592 18.9433L16.6396 -1.58103L13.0648 -2.56104L11.3721 0.55715Z" fill="#FDD60D"/>
</g>
</svg>
