<svg width="563" height="749" viewBox="0 0 563 749" fill="none" xmlns="http://www.w3.org/2000/svg">
<path d="M503.355 319.137L524.616 303.283L522.199 277.048L507.962 256.211L519.48 247.624L496.766 2L408.93 10.8518L388.859 40.7857L355.345 16.2497L348.68 16.9292C347.679 28.9518 351.059 38.4265 348.359 39.6533C346.489 40.5026 342.109 37.143 331.422 19.9112C330.912 20.4397 328.175 23.1575 323.832 23.1198C321.264 23.1009 318.734 22.0817 316.714 20.1566C246.324 27.2532 175.935 34.3497 105.564 41.4651C88.3631 46.0326 65.6867 54.1106 41.5563 69.0775C25.2429 79.1939 12.1581 90.0463 2 99.7286C2.75525 106.882 3.5105 114.054 4.28464 121.207C9.09937 126.076 13.9141 130.965 18.7477 135.834C20.8624 137.986 21.9575 140.817 21.9953 143.686C22.0708 148.215 19.4841 151.103 18.9932 151.632C35.571 162.654 38.8374 167.203 38.0444 169.165C36.6661 172.563 23.7324 166.844 8.98608 171.072C8.9672 171.072 8.92944 171.091 8.91056 171.091L14.6316 232.921L35.1745 263.006L18.5589 275.406L41.5941 524.805L68.1601 563.704L46.6732 579.727L49.0333 605.358L63.5531 626.629L51.8089 635.386L62.1558 747.365L138.266 739.683L139.909 737.078C141.533 734.512 144.025 732.87 146.706 732.303C150.955 731.398 154.146 733.53 154.75 733.945C162.095 714.883 165.776 710.712 167.759 711.184C170.856 711.901 168.779 723.452 173.065 736.173L225.271 730.907L256.558 697.009L284.294 724.962L440.726 709.183L480.433 679.57L496.785 703.521L561 697.047L529.638 357.639L503.355 319.174V319.137Z" fill="#C9B080" stroke="#3F2A18" stroke-width="2.91353" stroke-miterlimit="10"/>
<path d="M102.429 125.846L122.677 123.894L130.702 207.052L145.309 205.643L147.053 223.721L112.199 227.082L102.429 125.846ZM163.073 119.999L172.843 221.234L152.595 223.186L142.826 121.951L163.073 119.999ZM204.137 218.216L190.01 151.996L196.472 218.956L180.274 220.517L170.504 119.282L199.718 116.465L211.421 177.227L211.722 115.307L241.08 112.476L250.85 213.712L230.892 215.637L224.5 149.4L223.227 216.376L204.137 218.216ZM268.716 109.812L278.485 211.047L258.238 213L248.468 111.764L268.716 109.812ZM316.287 207.402L296.04 209.354L288.015 126.197L275.722 127.382L273.978 109.304L318.811 104.981L320.555 123.059L308.262 124.244L316.287 207.402ZM323.884 104.492L361.486 100.866L363.231 118.944L345.876 120.617L348.067 143.323L364.699 141.719L366.443 159.797L349.811 161.401L352.156 185.697L369.8 183.996L371.545 202.074L333.653 205.728L323.884 104.492ZM378.001 201.451L368.231 100.216L396.722 97.4684C411.329 96.0599 419.099 102.463 420.509 117.07L426.092 174.919C427.501 189.526 421.099 197.295 406.492 198.704L378.001 201.451ZM390.153 115.618L396.573 182.144L400.623 181.754C404.528 181.377 406.096 179.474 405.719 175.57L400.387 120.324C400.011 116.419 398.108 114.851 394.203 115.228L390.153 115.618Z" fill="#382966"/>
<path d="M107.527 41.5596C92.9882 48.7127 69.6509 62.887 51.4493 89.1971C45.3129 98.0678 40.8569 106.731 37.5715 114.507C26.847 108.128 16.1035 101.767 5.37891 95.3877" stroke="#231F20" stroke-width="0.98647" stroke-miterlimit="10"/>
</svg>
