<svg width="267" height="267" viewBox="0 0 267 267" fill="none" xmlns="http://www.w3.org/2000/svg">
<path d="M257.86 113.789L266.011 108.843L266.042 99.3679L261.66 91.4182L266.08 88.7399L266.405 0L149.319 0.154824L141.106 10.1868L129.952 0.247709L127.544 0.263194C126.77 4.52834 127.653 8.04264 126.646 8.39097C125.95 8.63093 124.494 7.27631 121.259 0.73538C121.057 0.905676 119.981 1.78812 118.433 1.62556C117.512 1.53267 116.645 1.07597 115.987 0.317373C90.5512 0.441225 65.1074 0.565074 39.6713 0.688925C33.3548 1.73393 24.9639 3.84715 15.8143 8.37549C9.62948 11.4331 4.56703 14.87 0.596034 17.9895C0.619257 20.5826 0.650218 23.168 0.673441 25.7612C2.22933 27.6731 3.78522 29.5851 5.34885 31.4971C6.03777 32.3408 6.32418 33.3936 6.24678 34.4231C6.11518 36.0486 5.0934 36.993 4.89988 37.171C10.4577 41.6839 11.464 43.4256 11.1157 44.099C10.5042 45.2679 6.06874 42.7753 0.650219 43.7816C0.642479 43.7816 0.634737 43.7816 0.619256 43.7816L0.534107 66.1214L6.85055 77.6009L0.472186 81.4713L0.139334 171.574L8.31355 186.42L0.0696638 191.421L0.0387002 200.679L4.50511 208.791L0 211.523L0.309625 266.916L27.8202 266.785L28.5014 265.91C29.1749 265.043 30.1192 264.548 31.0945 264.431C32.6427 264.253 33.7187 265.128 33.9122 265.291C37.1943 258.719 38.6573 257.349 39.3539 257.589C40.4376 257.952 39.2997 262.016 40.3989 266.723L59.2709 266.63L71.6406 255.568L80.6043 266.529L137.143 266.258L152.369 257.024L157.4 266.165L265.941 266.057V128.496L257.844 113.812L257.86 113.789Z" fill="#0B0C2A" stroke="#86CEBC" stroke-width="3" stroke-miterlimit="10"/>
<path d="M257.682 13.6545C259.58 13.6545 261.119 12.1158 261.119 10.2177C261.119 8.31951 259.58 6.78076 257.682 6.78076C255.784 6.78076 254.245 8.31951 254.245 10.2177C254.245 12.1158 255.784 13.6545 257.682 13.6545Z" fill="#86CEBC"/>
<path d="M11.6759 258.053C11.8661 256.074 10.4885 254.323 8.59912 254.141C6.70968 253.959 5.02381 255.416 4.83362 257.395C4.64344 259.374 6.02095 261.125 7.91038 261.307C9.79982 261.488 11.4857 260.032 11.6759 258.053Z" fill="#86CEBC"/>
<path d="M40.3831 0.781738C34.9336 2.84078 26.0937 7.1214 18.6703 15.9071C16.1701 18.8718 14.2736 21.8211 12.8338 24.4916C9.21115 21.8443 5.58849 19.1892 1.96582 16.5419" stroke="#86CEBC" stroke-width="3" stroke-miterlimit="10"/>
<path d="M10.5044 23.2071C9.91611 23.7721 9.33555 24.3372 8.74725 24.9023C6.64951 22.3865 4.54403 19.8785 2.44629 17.3628C5.13233 19.3135 7.81837 21.2641 10.5044 23.2071Z" fill="#86CEBC"/>
<path d="M262.285 257.646C262.475 255.667 261.098 253.916 259.208 253.734C257.319 253.553 255.633 255.01 255.443 256.988C255.253 258.967 256.63 260.719 258.52 260.9C260.409 261.082 262.095 259.625 262.285 257.646Z" fill="#86CEBC"/>
</svg>
