<svg width="563" height="749" viewBox="0 0 563 749" fill="none" xmlns="http://www.w3.org/2000/svg">
<path d="M503.355 319.137L524.616 303.283L522.199 277.048L507.962 256.211L519.48 247.624L496.766 2L408.93 10.8518L388.859 40.7857L355.345 16.2497L348.68 16.9292C347.679 28.9518 351.059 38.4265 348.359 39.6533C346.489 40.5026 342.109 37.143 331.422 19.9112C330.912 20.4397 328.175 23.1575 323.832 23.1198C321.264 23.1009 318.734 22.0817 316.714 20.1566C246.324 27.2532 175.935 34.3497 105.564 41.4651C88.3631 46.0326 65.6867 54.1106 41.5563 69.0775C25.2429 79.1939 12.1581 90.0463 2 99.7286C2.75525 106.882 3.5105 114.054 4.28464 121.207C9.09937 126.076 13.9141 130.965 18.7477 135.834C20.8624 137.986 21.9575 140.817 21.9953 143.686C22.0708 148.215 19.4841 151.103 18.9932 151.632C35.571 162.654 38.8374 167.203 38.0444 169.165C36.6661 172.563 23.7324 166.844 8.98608 171.072C8.9672 171.072 8.92944 171.091 8.91056 171.091L14.6316 232.921L35.1745 263.006L18.5589 275.406L41.5941 524.805L68.1601 563.704L46.6732 579.727L49.0333 605.358L63.5531 626.629L51.8089 635.386L62.1558 747.365L138.266 739.683L139.909 737.078C141.533 734.512 144.025 732.87 146.706 732.303C150.955 731.398 154.146 733.53 154.75 733.945C162.095 714.883 165.776 710.712 167.759 711.184C170.856 711.901 168.779 723.452 173.065 736.173L225.271 730.907L256.558 697.009L284.294 724.962L440.726 709.183L480.433 679.57L496.785 703.521L561 697.047L529.638 357.639L503.355 319.174V319.137Z" fill="#C9B080" stroke="#3F2A18" stroke-width="2.91353" stroke-miterlimit="10"/>
</svg>
