<svg width="270" height="271" viewBox="0 0 270 271" fill="none" xmlns="http://www.w3.org/2000/svg">
<path d="M259.86 115.789L268.011 110.843L268.042 101.368L263.66 93.4182L268.08 90.7399L268.405 2L151.319 2.15482L143.106 12.1868L131.952 2.24771L129.544 2.26319C128.77 6.52834 129.653 10.0426 128.646 10.391C127.95 10.6309 126.494 9.27631 123.259 2.73538C123.057 2.90568 121.981 3.78812 120.433 3.62556C119.512 3.53267 118.645 3.07597 117.987 2.31737C92.5512 2.44123 67.1074 2.56507 41.6713 2.68893C35.3548 3.73393 26.9639 5.84715 17.8143 10.3755C11.6295 13.4331 6.56703 16.87 2.59603 19.9895C2.61926 22.5826 2.65022 25.168 2.67344 27.7612C4.22933 29.6731 5.78522 31.5851 7.34885 33.4971C8.03777 34.3408 8.32418 35.3936 8.24678 36.4231C8.11518 38.0486 7.0934 38.993 6.89988 39.171C12.4577 43.6839 13.464 45.4256 13.1157 46.099C12.5042 47.2679 8.06874 44.7753 2.65022 45.7816C2.64248 45.7816 2.63474 45.7816 2.61926 45.7816L2.53411 68.1214L8.85055 79.6009L2.47219 83.4713L2.13933 173.574L10.3136 188.42L2.06966 193.421L2.0387 202.679L6.50511 210.791L2 213.523L2.30962 268.916L29.8202 268.785L30.5014 267.91C31.1749 267.043 32.1192 266.548 33.0945 266.431C34.6427 266.253 35.7187 267.128 35.9122 267.291C39.1943 260.719 40.6573 259.349 41.3539 259.589C42.4376 259.952 41.2997 264.016 42.3989 268.723L61.2709 268.63L73.6406 257.568L82.6043 268.529L139.143 268.258L154.369 259.024L159.4 268.165L267.941 268.057V130.496L259.844 115.812L259.86 115.789Z" fill="#C9B080" stroke="#5E4112" stroke-width="3" stroke-miterlimit="10"/>
<path d="M259.682 15.654C261.58 15.654 263.119 14.1153 263.119 12.2172C263.119 10.319 261.58 8.78027 259.682 8.78027C257.784 8.78027 256.245 10.319 256.245 12.2172C256.245 14.1153 257.784 15.654 259.682 15.654Z" fill="#5E4112"/>
<path d="M13.6759 260.053C13.8661 258.074 12.4885 256.323 10.5991 256.141C8.70968 255.96 7.02381 257.417 6.83362 259.396C6.64344 261.374 8.02095 263.126 9.91038 263.307C11.7998 263.489 13.4857 262.032 13.6759 260.053Z" fill="#5E4112"/>
<path d="M42.3831 2.78125C36.9336 4.84029 28.0937 9.12091 20.6703 17.9067C18.1701 20.8714 16.2736 23.8206 14.8338 26.4911C11.2111 23.8438 7.58849 21.1887 3.96582 18.5414" stroke="#5E4112" stroke-width="3" stroke-miterlimit="10"/>
<path d="M12.5044 25.2066C11.9161 25.7716 11.3355 26.3367 10.7473 26.9018C8.64951 24.386 6.54403 21.878 4.44629 19.3623C7.13233 21.313 9.81837 23.2636 12.5044 25.2066Z" fill="#5E4112"/>
<path d="M264.285 259.646C264.475 257.667 263.098 255.916 261.208 255.734C259.319 255.553 257.633 257.01 257.443 258.988C257.253 260.967 258.63 262.719 260.52 262.9C262.409 263.082 264.095 261.625 264.285 259.646Z" fill="#5E4112"/>
</svg>
