<svg width="628" height="796" viewBox="0 0 628 796" fill="none" xmlns="http://www.w3.org/2000/svg">
<path d="M539.977 363.589L562.655 349.839L562.756 323.493L550.575 301.391L562.861 293.944L563.719 47.2732L475.439 47.6921L452.6 75.5713L421.584 47.9454L414.884 47.9849C412.739 59.8569 415.198 69.6112 412.393 70.5744C410.451 71.2412 406.412 67.4785 397.421 49.3045C396.863 49.7818 393.878 52.2256 389.558 51.7731C387.004 51.509 384.583 50.2527 382.756 48.1433C312.01 48.482 241.265 48.8206 170.536 49.1798C152.978 52.0829 129.633 57.9572 104.183 70.5501C86.9777 79.0615 72.9159 88.6141 61.8792 97.2815C61.9475 104.474 62.014 111.686 62.1012 118.88C66.4286 124.187 70.7543 129.513 75.1005 134.822C76.9999 137.166 77.8196 140.089 77.583 142.948C77.2254 147.464 74.3746 150.092 73.8354 150.571C89.2842 163.127 92.1012 167.966 91.1242 169.845C89.4276 173.095 77.0995 166.166 62.0167 168.966C61.9979 168.964 61.9585 168.979 61.9397 168.977L61.7269 231.072L79.3013 262.982L61.5769 273.737L60.6776 524.196L83.4054 565.455L60.4857 579.353L60.3862 605.092L72.8071 627.652L60.2799 635.248L59.8804 747.702L136.377 747.328L138.261 744.892C140.122 742.492 142.76 741.096 145.483 740.788C149.799 740.293 152.771 742.72 153.333 743.191C162.465 724.918 166.529 721.118 168.457 721.777C171.471 722.787 168.3 734.086 171.351 747.158L223.822 746.905L258.204 716.152L283.143 746.626L440.367 745.866L482.722 720.183L496.71 745.586L561.25 745.278L562.461 404.426L539.974 363.626L539.977 363.589Z" fill="#0B0C2A" stroke="#72E8C9" stroke-width="3" stroke-miterlimit="10"/>
<path d="M159.353 132.876L179.695 132.867L179.737 216.411L194.412 216.404L194.421 234.566L159.406 234.581L159.353 132.876ZM220.278 132.849L220.33 234.555L199.989 234.564L199.937 132.858L220.278 132.849ZM251.77 234.541L244.034 167.273L244.069 234.544L227.796 234.552L227.744 132.846L257.093 132.833L262.937 194.435L269.153 132.828L298.647 132.815L298.7 234.521L278.649 234.529L278.615 167.985L270.948 234.533L251.77 234.541ZM326.411 132.803L326.463 234.508L306.122 234.517L306.07 132.811L326.411 132.803ZM364.441 234.492L344.099 234.501L344.056 150.957L331.706 150.962L331.697 132.8L376.738 132.781L376.748 150.942L364.398 150.948L364.441 234.492ZM381.835 132.778L419.611 132.762L419.621 150.924L402.185 150.931L402.197 173.742L418.906 173.735L418.915 191.897L402.207 191.904L402.219 216.313L419.945 216.306L419.954 234.467L381.887 234.484L381.835 132.778ZM426.44 234.465L426.388 132.759L455.011 132.746C469.686 132.74 476.809 139.856 476.816 154.531L476.846 212.649C476.854 227.323 469.738 234.446 455.063 234.452L426.44 234.465ZM446.738 150.185L446.772 217.02L450.841 217.019C454.764 217.017 456.506 215.273 456.504 211.35L456.476 155.847C456.474 151.924 454.729 150.182 450.806 150.183L446.738 150.185Z" fill="#C4F7BC"/>
<path d="M538.529 85.223C543.791 85.7281 548.467 81.873 548.972 76.6124C549.477 71.3517 545.62 66.6776 540.357 66.1725C535.094 65.6673 530.419 69.5224 529.914 74.7831C529.409 80.0437 533.266 84.7178 538.529 85.223Z" fill="#231F20"/>
<path d="M80.9398 732.052C86.2025 732.557 90.8967 728.509 91.4246 723.009C91.9524 717.51 88.114 712.642 82.8513 712.137C77.5886 711.632 72.8944 715.681 72.3665 721.18C71.8386 726.679 75.677 731.547 80.9398 732.052Z" fill="#231F20"/>
<path d="M172.481 49.4611C157.326 55.1924 132.741 67.072 112.109 91.5226C105.153 99.7664 99.8896 107.964 95.8763 115.391C85.8103 108.016 75.7237 100.658 65.6577 93.283" stroke="#72E8C9" stroke-width="3" stroke-miterlimit="10"/>
<path d="M89.3934 111.81C87.7633 113.379 86.1332 114.948 84.5219 116.519C78.6865 109.531 72.8324 102.541 66.9971 95.5537C74.4625 100.973 81.9279 106.391 89.3934 111.81Z" fill="#231F20"/>
<path d="M540.493 730.922C545.755 731.427 550.449 727.379 550.977 721.879C551.505 716.38 547.667 711.513 542.404 711.007C537.141 710.502 532.447 714.551 531.919 720.05C531.391 725.549 535.23 730.417 540.493 730.922Z" fill="#231F20"/>
<rect x="133" y="268" width="362" height="417" fill="#C4F7BC"/>
<rect x="200.826" y="710.826" width="226.359" height="64.9888" rx="1.92763" fill="#382966" stroke="#C4F7BC" stroke-width="1.65226"/>
</svg>
