<svg width="508" height="705" viewBox="0 0 508 705" fill="none" xmlns="http://www.w3.org/2000/svg">
<path d="M481.977 318.589L504.655 304.839L504.756 278.493L492.575 256.391L504.861 248.944L505.719 2.27318L417.439 2.69208L394.6 30.5713L363.584 2.94542L356.884 2.98494C354.739 14.8569 357.198 24.6112 354.393 25.5744C352.451 26.2412 348.412 22.4785 339.421 4.30446C338.863 4.7818 335.878 7.22561 331.558 6.77311C329.004 6.50897 326.583 5.2527 324.756 3.14335C254.01 3.48196 183.265 3.82057 112.536 4.17978C94.9776 7.08286 71.6331 12.9572 46.1831 25.5501C28.9777 34.0615 14.9159 43.6141 3.87916 52.2815C3.9475 59.4741 4.01403 66.6855 4.10116 73.8799C8.42861 79.1871 12.7543 84.5131 17.1005 89.8221C18.9999 92.1659 19.8196 95.0887 19.583 97.948C19.2254 102.464 16.3746 105.092 15.8354 105.571C31.2842 118.127 34.1012 122.966 33.1242 124.845C31.4276 128.095 19.0995 121.166 4.0167 123.966C3.99791 123.964 3.95852 123.979 3.93972 123.977L3.72688 186.072L21.3013 217.982L3.57694 228.737L2.67756 479.196L25.4054 520.455L2.48571 534.353L2.38616 560.092L14.8071 582.652L2.27992 590.248L1.88039 702.702L78.3767 702.328L80.2607 699.892C82.1223 697.492 84.7601 696.096 87.4831 695.788C91.7985 695.293 94.7711 697.72 95.3329 698.191C104.465 679.918 108.529 676.118 110.457 676.777C113.471 677.787 110.3 689.086 113.351 702.158L165.822 701.905L200.204 671.152L225.143 701.626L382.367 700.866L424.722 675.183L438.71 700.586L503.25 700.278L504.461 359.426L481.974 318.626L481.977 318.589Z" fill="#0B0C2A" stroke="#72E8C9" stroke-width="3" stroke-miterlimit="10"/>
</svg>
