<svg width="120" height="121" viewBox="0 0 120 121" fill="none" xmlns="http://www.w3.org/2000/svg">
<g filter="url(#filter0_d_758_356)">
<path d="M100.999 64.3167L96.7325 49.9724L93.7953 45.4693L90.3122 41.1712L85.4779 37.2561L80.7034 34.0046L75.592 31.5008L70.4242 29.5174L64.97 27.7662L59.5775 26.677L50.1043 26.996L47.2586 27.878L39.4258 32.5642L55.0314 77.5955L100.999 64.3167Z" fill="white"/>
<path d="M94.8828 53.8356C92.1534 60.0665 78.3489 60.3676 64.5932 54.342C50.8374 48.3165 41.8988 38.3807 44.6282 32.1498C47.3576 25.9189 60.6534 25.4752 74.4091 31.5007C88.1648 37.5263 97.6122 47.6047 94.8828 53.8356Z" fill="#EF0E13"/>
<path d="M52.0511 77.0156L51.2825 48.334L75.5836 60.0341L52.0511 77.0156Z" fill="#EF0E13"/>
<path d="M23.7234 50.728L24.3845 49.7305L27.1609 47.0058L30.9673 43.2089L38.5531 35.8747L44.6465 49.1852L23.7234 50.728Z" fill="#F5655E"/>
<path d="M40.5547 34.251L41.3304 35.203L39.043 37.0667L38.3809 36.2497L38.5519 35.8749L38.8377 35.6418L39.4109 35.1775L40.5547 34.251Z" fill="#F5655E"/>
<rect x="41.2559" y="35.1094" width="4.42576" height="4.05695" transform="rotate(50.9788 41.2559 35.1094)" fill="#F5655E"/>
<path d="M43.4488 38.5522C43.5674 38.4561 43.7418 38.4765 43.8351 38.5973L48.236 44.3002C48.3262 44.417 48.3066 44.5845 48.192 44.6774L44.0247 48.0545C43.9081 48.149 43.7369 48.1311 43.6424 48.0145L39.1083 42.4195C39.0138 42.3029 39.0317 42.1318 39.1483 42.0373L43.4488 38.5522Z" fill="#F5655E"/>
<rect x="49.4834" y="46.4375" width="2.51725" height="5.52992" transform="rotate(87.4466 49.4834 46.4375)" fill="#F5655E"/>
<path d="M46.3763 49.1047L48.0044 44.4716L51.3632 48.7545L46.3763 49.1047Z" fill="#F5655E"/>
<path d="M47.8155 47.0519L45.5746 46.6395L47.8326 44.7735L47.8155 47.0519Z" fill="#F5655E"/>
<path d="M40.8584 34.0355L51.247 48.6109" stroke="white" stroke-width="0.543567"/>
<path d="M51.4366 48.6L52.4652 74.7388L30.9318 64.8434L51.4366 48.6Z" fill="#C4F7BC"/>
<line x1="43.2444" y1="70.8639" x2="52.0661" y2="75.5827" stroke="#C4F7BC" stroke-width="0.543567"/>
<path d="M45.2881 94.9357L30.8091 65.2443L36.4146 63.1162L45.2881 94.9357Z" fill="#9B0A0E"/>
<path d="M51.2247 48.6827L30.8219 65.0824L23.75 50.7263L51.2247 48.6827Z" fill="#9B0A0E"/>
<path d="M45.8047 96.4961C45.8047 96.4961 37.8251 68.7832 37.9683 68.667L42.8901 70.8115L52.8036 76.3078L52.865 76.9694L52.0203 80.0275L48.6131 89.7104L45.8047 96.4961Z" fill="#F5655E"/>
<path d="M75.5199 60.0109L71.7328 82.0913L64.5215 79.4366L75.5199 60.0109Z" fill="#950C10"/>
<path d="M75.4708 60.0996L64.8652 79.547L57.8313 73.4984L57.3338 73.1095L59.4573 71.6294L61.7224 70.0312L66.3959 66.7185L75.4708 60.0996Z" fill="#950C10"/>
<path d="M52.2769 75.0717L52.2985 76.0238L51.9332 75.8314L52.2769 75.0717Z" fill="#C4F7BC"/>
<rect x="52.3623" y="75.0664" width="0.411657" height="0.0968067" transform="rotate(87.2461 52.3623 75.0664)" fill="white"/>
<path d="M75.4827 60.065L75.6259 59.9489L76.0014 60.1193L76.4738 61.8756L81.2292 71.5513L83.914 77.2055L84.5563 78.5839L85.3147 80.1055L85.9842 81.2245L86.8858 82.63L86.2243 82.6942L83.8084 83.2278L76.3756 82.8427L71.7341 82.0944L73.4283 72.1765L74.4557 66.122L74.8978 63.1528L75.2041 61.4804L75.4288 60.5862L75.456 60.3269L75.4827 60.065Z" fill="#9B0A0E"/>
<path d="M57.615 72.9976L66.3057 80.0799L52.7684 76.4523L57.615 72.9976Z" fill="#950C10"/>
<path d="M86.6533 82.3425L85.0822 79.818L83.9137 77.2046L80.9962 71.2614L76.9992 63.1074L76.3569 61.729L76.0011 60.1187L76.4309 59.7704L78.4169 59.5851L84.375 59.0291L89.0091 58.5967L91.5139 58.4657L92.8379 58.3421L93.3566 58.3965L93.9915 58.5941L90.4966 70.6831L86.6533 82.3425Z" fill="#EF0E13"/>
<path d="M93.8679 58.6181L98.7862 79.1556L98.0699 79.7361L97.4968 80.2005L97.4029 80.2016L96.0245 80.8439L92.6348 81.9311L89.2432 83.0181L87.2028 83.7222L86.1294 84.0402L93.8679 58.6181Z" fill="#950C10"/>
<path d="M98.7872 79.1558L93.7597 58.3074L94.0191 58.3346L102.789 64.7861L103.007 65.0555L103.792 68.9286L103.951 71.1741L103.59 73.3651L102.226 76.3688L101.51 76.9496L98.7872 79.1558Z" fill="#950C10"/>
<path d="M93.6426 58.163L94.9714 54.2378L95.7075 52.2172L96.2188 51.0907L96.2731 50.572L96.8461 50.1078L97.6321 51.3705L98.9167 54.1272L100.263 57.546L101.698 61.3673L102.519 63.5509L102.901 64.9021L93.7587 58.3063L93.6426 58.163Z" fill="#F5655E"/>
<path d="M45.8459 96.7176L52.9201 76.4514L61.9784 78.8417L65.6714 79.884L71.385 81.955L45.8459 96.7176Z" fill="#9B0A0E"/>
<path d="M71.3587 81.9198L78.7236 82.9534L83.5492 83.1966L86.627 82.6012L86.259 83.6115L86.0886 83.987L46.3649 96.4774L55.8626 90.9167L71.3587 81.9198Z" fill="#EF0E13"/>
<path d="M40.701 34.1334L31.3468 33.1019L32.0802 32.5752L33.172 32.1652L35.5003 31.2334L39.4635 29.6775L43.6605 28.4132L46.3371 27.9113L47.5455 27.646L47.7794 27.9376L47.4414 28.6978L45.0112 30.6888L40.701 34.1334Z" fill="#F5655E"/>
<path d="M40.7246 34.1638L32.1634 42.0508L23.807 50.4844L23.7572 50.7198L23.4587 50.0546L23.2537 49.5087L22.7275 48.2736L22.6929 47.3522L23.0881 46.0825L23.6537 44.4374L24.5059 42.56L26.2102 38.8052L28.4333 35.1048L30.7255 33.2471L31.5309 33.0693L40.7246 34.1638Z" fill="#9B0A0E"/>
<path d="M51.1056 48.7322L51.3636 48.8835L51.7614 52.5961L51.8456 56.8004L52.5054 65.5227L52.8291 71.1943L53.0491 74.1017L53.0022 75.8012L52.948 76.3197L51.5621 75.7814L48.3261 74.1314L43.9908 71.7108L41.5071 70.2776L38.1278 68.7437L36.9124 67.8298L36.5826 66.0838L36.3504 65.7973L51.1056 48.7322Z" fill="#950C10"/>
<path d="M51.1056 48.7322L51.3636 48.8835L51.7614 52.5961L51.8456 56.8004L52.5054 65.5227L52.8291 71.1943L53.0491 74.1017L53.0022 75.8012L52.948 76.3197L51.5621 75.7814L48.3261 74.1314L43.9908 71.7108L41.5071 70.2776L38.1278 68.7437L36.9124 67.8298L36.5826 66.0838L36.3504 65.7973L51.1056 48.7322Z" fill="#950C10"/>
<path d="M24.0596 50.2207L23.787 50.4125L23.7738 50.6729L24.0596 50.2207Z" fill="#9B0A0E"/>
<rect x="38.0166" y="59.0859" width="3.46006" height="9.06284" transform="rotate(65.7813 38.0166 59.0859)" fill="#9B0A0E"/>
<path d="M38.2515 61.4449L39.4676 62.199L36.9233 65.2103L35.9522 64.2788L38.2515 61.4449Z" fill="#9B0A0E"/>
<path d="M50.9298 48.918L39.2457 62.7939L37.7258 59.0628L50.9298 48.918Z" fill="#9B0A0E"/>
</g>
<defs>
<filter id="filter0_d_758_356" x="22.6934" y="26.6777" width="91.7437" height="79.3607" filterUnits="userSpaceOnUse" color-interpolation-filters="sRGB">
<feFlood flood-opacity="0" result="BackgroundImageFix"/>
<feColorMatrix in="SourceAlpha" type="matrix" values="0 0 0 0 0 0 0 0 0 0 0 0 0 0 0 0 0 0 127 0" result="hardAlpha"/>
<feOffset dx="5.82603" dy="4.66083"/>
<feGaussianBlur stdDeviation="2.33041"/>
<feComposite in2="hardAlpha" operator="out"/>
<feColorMatrix type="matrix" values="0 0 0 0 0 0 0 0 0 0 0 0 0 0 0 0 0 0 0.4 0"/>
<feBlend mode="normal" in2="BackgroundImageFix" result="effect1_dropShadow_758_356"/>
<feBlend mode="normal" in="SourceGraphic" in2="effect1_dropShadow_758_356" result="shape"/>
</filter>
</defs>
</svg>
