<svg width="91" height="90" viewBox="0 0 91 90" fill="none" xmlns="http://www.w3.org/2000/svg">
<mask id="mask0_758_357" style="mask-type:luminance" maskUnits="userSpaceOnUse" x="0" y="0" width="91" height="90">
<path d="M90.0909 42.821C90.0909 19.1699 70.921 0 47.2698 0C44.6972 0 42.2076 0.248952 39.801 0.705378C39.6765 0.705378 39.5936 0.705378 39.4691 0.705378C20.0087 2.86303 3.24548 18.7135 0.423937 38.4643C-3.0615 62.7378 15.32 87.9657 41.7512 89.8744C67.4355 91.7001 89.7589 70.746 89.9664 45.6011C89.9664 45.3936 89.9664 45.1447 89.9664 44.9372C89.9664 44.2318 90.0909 43.5264 90.0909 42.821Z" fill="white"/>
</mask>
<g mask="url(#mask0_758_357)">
<path d="M90.0462 45.3944C89.8387 70.5394 67.5154 91.4934 41.8311 89.6677C15.3584 87.759 -2.98163 62.5726 0.503805 38.2576C3.32535 18.5068 20.0886 2.65641 39.5489 0.498761C64.6939 -2.28129 90.3367 18.2164 90.0877 45.3944H90.0462Z" fill="#C46B29"/>
<path d="M47.3064 85.4351C70.9558 85.4351 90.1274 66.2634 90.1274 42.614C90.1274 18.9646 70.9558 -0.207031 47.3064 -0.207031C23.657 -0.207031 4.48535 18.9646 4.48535 42.614C4.48535 66.2634 23.657 85.4351 47.3064 85.4351Z" fill="#FFD929"/>
<path d="M47.3101 80.5791C68.2783 80.5791 85.2764 63.581 85.2764 42.6128C85.2764 21.6446 68.2783 4.64648 47.3101 4.64648C26.3419 4.64648 9.34375 21.6446 9.34375 42.6128C9.34375 63.581 26.3419 80.5791 47.3101 80.5791Z" fill="#FFF16F"/>
<path d="M58.47 22.2418C58.47 21.3704 58.138 20.4991 57.4327 19.6692C56.7273 18.8393 55.9389 18.1755 54.9431 17.636C53.9887 17.0966 53.1174 16.8477 52.3705 16.8477H34.7773C35.3168 16.8477 35.9392 17.0551 36.6445 17.4286C37.3084 17.802 37.7234 18.2584 37.7649 18.7149V66.6395C37.6819 67.096 37.3084 67.5109 36.6445 67.8844C35.9807 68.2578 35.3582 68.4653 34.7773 68.4653H52.3705C53.1174 68.4653 53.9887 68.2163 54.9431 67.6769C55.8974 67.1375 56.7273 66.4736 57.4327 65.6437C58.0965 64.8139 58.47 63.984 58.47 63.1126V22.2003V22.2418ZM51.3332 61.3284H44.9017V24.026H51.3332V61.3284Z" fill="#FDB813"/>
<path opacity="0.35" d="M42.3708 2.07515L0.130712 56.1824L-9.95215 77.1365L0.919078 81.6592L4.90243 70.5805L61.9971 -5.89154L48.6778 -9.54297L42.3708 2.07515Z" fill="#FDD60D"/>
</g>
</svg>
