<svg width="30" height="30" viewBox="0 0 30 30" fill="none" xmlns="http://www.w3.org/2000/svg">
<rect width="10.2128" height="29.9602" rx="1" transform="matrix(0.00392312 -0.999992 0.999992 0.00393356 0 20.0479)" fill="#D9D9D9"/>
<rect x="9.90039" width="10.1992" height="30" rx="1" fill="#D9D9D9"/>
<rect width="28.5286" height="9.1074" rx="1" transform="matrix(-0.00213875 -0.999998 0.999998 -0.00214444 10.4102 29.1865)" fill="#0B0C2A"/>
<rect width="28.4908" height="9.11951" rx="1" transform="matrix(-0.999998 -0.00178913 0.00178438 -0.999999 29.1475 19.6504)" fill="#0B0C2A"/>
<rect width="10.2128" height="29.9602" rx="1" transform="matrix(0.00392312 -0.999992 0.999992 0.00393356 0 20.0479)" fill="white"/>
<rect x="9.90039" width="10.1992" height="30" rx="1" fill="white"/>
<rect width="28.5286" height="9.1074" rx="1" transform="matrix(-0.00213875 -0.999998 0.999998 -0.00214444 10.4102 29.1865)" fill="#110F29"/>
<rect width="28.4908" height="9.11951" rx="1" transform="matrix(-0.999998 -0.00178913 0.00178438 -0.999999 29.1475 19.6504)" fill="#110F29"/>
</svg>
