<svg width="384" height="420" viewBox="0 0 384 420" fill="none" xmlns="http://www.w3.org/2000/svg">
<g clip-path="url(#clip0_435_300)">
<path d="M18.1494 6.85156H61.3986L76.7409 418.146H27.9218L34.8878 363.942L18.1494 6.85156Z" fill="#A67C4E" stroke="#5E4112" stroke-width="2.10832" stroke-miterlimit="10"/>
<path d="M284.58 1.26758L290.15 309.539V363.942L287.358 418.146H345.949V299.282L338.969 6.85179H315.265L284.58 1.26758Z" fill="#A67C4E" stroke="#5E4112" stroke-width="2.10832" stroke-miterlimit="10"/>
<path d="M61.3975 6.85156L72.2382 14.7293L85.629 299.282V407.191C82.7941 409.997 79.1758 418.659 77.3808 418.16C72.1385 281.902 66.654 143.109 61.4117 6.85156H61.3975Z" fill="#A67C4E" stroke="#5E4112" stroke-width="2.10832" stroke-miterlimit="10"/>
<path d="M345.951 418.146C350.495 416.137 355.04 414.129 359.584 412.12V376.279L349.284 6.85156H338.971L345.951 418.16V418.146Z" fill="#A67C4E" stroke="#5E4112" stroke-width="2.10832" stroke-miterlimit="10"/>
<path d="M6.39648 44.4884L87.2963 34.9297H307.687C330.608 36.5537 353.544 38.1776 376.464 39.8159C378.174 41.3544 379.898 42.8929 381.607 44.4171C382.049 57.8791 382.49 71.3553 382.918 84.8172C380.767 86.3272 378.616 87.823 376.45 89.333C362.404 92.5667 348.344 95.8004 334.298 99.0341C349.982 98.6495 365.681 98.2649 381.365 97.866C378.658 115.103 375.937 132.354 373.231 149.591C376.023 162.327 378.815 175.076 381.607 187.812C379.898 188.923 378.174 190.034 376.464 191.159C353.601 194.564 330.751 197.969 307.887 201.359C332.46 201.388 357.034 201.43 381.607 201.459C381.436 235.292 381.265 269.125 381.094 302.958C379.556 303.812 378.003 304.681 376.464 305.536C360.98 305.878 345.495 306.234 329.996 306.576H168.182L90.0742 313.399L11.9665 301.12L21.7246 256.076H51.0132L20.3285 236.958C20.3285 236.958 18.9325 219.209 18.9325 209.664C18.9325 200.12 16.1404 145.503 16.1404 145.503L39.859 141.414L17.5364 131.856L18.9325 107.282L6.39648 44.4884Z" fill="#C9B080" stroke="#5E4112" stroke-width="2.09408" stroke-miterlimit="10"/>
<path d="M1.25391 44.6878L82.1537 34.9297H302.545L376.479 39.8159V89.333L347.19 101.883H376.479L368.102 152.098L376.479 191.159L336.5 202L376.479 205.106V305.536L324.867 312.516H163.054L84.9458 319.497L6.83812 306.946L16.5962 260.919H45.8849L15.2002 241.389C15.2002 241.389 13.8041 223.254 13.8041 213.496C13.8041 203.738 11.012 147.939 11.012 147.939L34.7307 143.751L12.4081 133.992L13.8041 108.878L1.25391 44.6878Z" fill="#C9B080" stroke="#5E4112" stroke-width="2.10832" stroke-miterlimit="10"/>
</g>
<defs>
<clipPath id="clip0_435_300">
<rect width="384" height="419.756" fill="white"/>
</clipPath>
</defs>
</svg>
